/* XPM */
static char * rhalf_pressed_xpm[] = {
"16 16 3 1",
" 	c None",
".	c #586E75",
"+	c #073642",
"................",
"................",
"................",
"................",
"........+++++...",
"........+++++...",
"....+...+...+...",
".....+..+...+...",
"..+++++.+...+...",
".....+..+...+...",
"....+...+...+...",
"........+++++...",
"................",
"................",
"................",
"................"};
