/* XPM */
static char * close_pressed_xpm[] = {
"16 16 4 1",
" 	c None",
".	c #93A1A1",
"+	c #586E75",
"@	c #EEE8D5",
"................",
"................",
"................",
"................",
"....++....++....",
"...@@++..@@+....",
"...@@@++@@@.....",
"....@@@@@@......",
".....@@@@+......",
".....@@@@++.....",
"....@@@@@@++....",
"...@@@..@@@+....",
"...@@....@@.....",
"................",
"................",
"................"};
