/* XPM */
static char * close_unfocus_xpm[] = {
"16 16 4 1",
" 	c None",
".	c #839496",
"+	c #859597",
"@	c #073642",
"................",
"................",
"................",
"...++++++++++...",
"...+@@++++@@+...",
"...+@@@++@@@+...",
"...++@@@@@@++...",
"...+++@@@@+++...",
"...+++@@@@+++...",
"...++@@@@@@++...",
"...+@@@++@@@+...",
"...+@@++++@@+...",
"...++++++++++...",
"................",
"................",
"................"};
