/* XPM */
static char * lhalf_unfocus_xpm[] = {
"16 16 3 1",
" 	c None",
".	c #839496",
"+	c #073642",
"................",
"................",
"................",
"................",
"...+++++........",
"...+++++........",
"...+...+...+....",
"...+...+..+.....",
"...+...+.+++++..",
"...+...+..+.....",
"...+...+...+....",
"...+++++........",
"................",
"................",
"................",
"................"};
