/* XPM */
static char * selected_hilite_xpm[] = {
"16 16 3 1",
" 	c None",
".	c #93A1A1",
"+	c #586E75",
"................",
"................",
"................",
"................",
"....++++++++....",
"....++++++++....",
"....++++++++....",
"....++++++++....",
"....++++++++....",
"....++++++++....",
"....++++++++....",
"....++++++++....",
"................",
"................",
"................",
"................"};
