/* XPM */
static char * unselected_xpm[] = {
"16 16 3 1",
" 	c None",
".	c #EEE8D5",
"+	c #586E75",
"................",
"................",
"................",
"................",
"....++++++++....",
"....+......+....",
"....+......+....",
"....+......+....",
"....+......+....",
"....+......+....",
"....+......+....",
"....++++++++....",
"................",
"................",
"................",
"................"};
