#define lhalf_width 16
#define lhalf_height 16
static unsigned char lhalf_bits[] = {
   0xff, 0xff, 0x01, 0x80, 0x01, 0x80, 0x01, 0x80, 0xf9, 0x80, 0xf9, 0x80,
   0x89, 0x88, 0x89, 0x84, 0x89, 0xbe, 0x89, 0x84, 0x89, 0x88, 0xf9, 0x80,
   0x01, 0x80, 0x01, 0x80, 0x01, 0x80, 0xff, 0xff };
