#define lhalf_width 16
#define lhalf_height 16
static unsigned char lhalf_bits[] = {
   0x00, 0x00, 0x00, 0x00, 0x00, 0x00, 0x00, 0x00, 0xf8, 0x00, 0xf8, 0x00,
   0x88, 0x08, 0x88, 0x04, 0x88, 0x3e, 0x88, 0x04, 0x88, 0x08, 0xf8, 0x00,
   0x00, 0x00, 0x00, 0x00, 0x00, 0x00, 0x00, 0x00 };
