#define max_width 16
#define max_height 16
static unsigned char max_bits[] = {
   0xff, 0xff, 0x01, 0x80, 0x01, 0x80, 0x01, 0x80, 0xf1, 0x8f, 0xf1, 0x8f,
   0x11, 0x88, 0x11, 0x88, 0x11, 0x88, 0x11, 0x88, 0x11, 0x88, 0xf1, 0x8f,
   0x01, 0x80, 0x01, 0x80, 0x01, 0x80, 0xff, 0xff };
