#define menu_width 16
#define menu_height 16
static unsigned char menu_bits[] = {
   0xff, 0xff, 0x01, 0x80, 0x01, 0x80, 0x01, 0x80, 0xf9, 0x8f, 0xf9, 0x8f,
   0x01, 0x80, 0x01, 0x80, 0xf9, 0x81, 0x01, 0x80, 0x01, 0x80, 0xf9, 0x81,
   0x01, 0x80, 0x01, 0x80, 0x01, 0x80, 0xff, 0xff };
