#define rhalf_width 16
#define rhalf_height 16
static unsigned char rhalf_bits[] = {
   0x00, 0x00, 0x00, 0x00, 0x00, 0x00, 0x00, 0x00, 0x00, 0x1f, 0x00, 0x1f,
   0x10, 0x11, 0x20, 0x11, 0x7c, 0x11, 0x20, 0x11, 0x10, 0x11, 0x00, 0x1f,
   0x00, 0x00, 0x00, 0x00, 0x00, 0x00, 0x00, 0x00 };
