#define rhalf_width 16
#define rhalf_height 16
static unsigned char rhalf_bits[] = {
   0xff, 0xff, 0x01, 0x80, 0x01, 0x80, 0x01, 0x80, 0x01, 0x9f, 0x01, 0x9f,
   0x11, 0x91, 0x21, 0x91, 0x7d, 0x91, 0x21, 0x91, 0x11, 0x91, 0x01, 0x9f,
   0x01, 0x80, 0x01, 0x80, 0x01, 0x80, 0xff, 0xff };
